<?xml version="1.0" encoding="UTF-8" standalone="no"?>
<!-- Created with Inkscape (http://www.inkscape.org/) -->

<svg
   xmlns:dc="http://purl.org/dc/elements/1.1/"
   xmlns:cc="http://creativecommons.org/ns#"
   xmlns:rdf="http://www.w3.org/1999/02/22-rdf-syntax-ns#"
   xmlns:svg="http://www.w3.org/2000/svg"
   xmlns="http://www.w3.org/2000/svg"
   xmlns:sodipodi="http://sodipodi.sourceforge.net/DTD/sodipodi-0.dtd"
   xmlns:inkscape="http://www.inkscape.org/namespaces/inkscape"
   width="1070.7352mm"
   height="375.35837mm"
   viewBox="0 0 1070.7352 375.35837"
   version="1.1"
   id="svg8"
   inkscape:version="0.92.4 (5da689c313, 2019-01-14)"
   sodipodi:docname="titleofhackathon.svg">
  <defs
     id="defs2" />
  <sodipodi:namedview
     id="base"
     pagecolor="#ffffff"
     bordercolor="#666666"
     borderopacity="1.0"
     inkscape:pageopacity="0.0"
     inkscape:pageshadow="2"
     inkscape:zoom="0.35000001"
     inkscape:cx="634.85069"
     inkscape:cy="569.35924"
     inkscape:document-units="mm"
     inkscape:current-layer="layer1"
     showgrid="false"
     inkscape:window-width="1920"
     inkscape:window-height="1001"
     inkscape:window-x="-9"
     inkscape:window-y="-9"
     inkscape:window-maximized="1"
     inkscape:lockguides="false"
     fit-margin-top="0"
     fit-margin-left="0"
     fit-margin-right="0"
     fit-margin-bottom="0" />
  <metadata
     id="metadata5">
    <rdf:RDF>
      <cc:Work
         rdf:about="">
        <dc:format>image/svg+xml</dc:format>
        <dc:type
           rdf:resource="http://purl.org/dc/dcmitype/StillImage" />
        <dc:title></dc:title>
      </cc:Work>
    </rdf:RDF>
  </metadata>
  <g
     inkscape:groupmode="layer"
     id="layer2"
     inkscape:label="backblack"
     style="display:inline"
     transform="translate(0.45090438,218.83437)">
    <text
       xml:space="preserve"
       style="font-style:normal;font-variant:normal;font-weight:normal;font-stretch:normal;font-size:166.8447113px;line-height:1.25;font-family:Righteous;-inkscape-font-specification:Righteous;font-variant-ligatures:normal;font-variant-caps:normal;font-variant-numeric:normal;font-feature-settings:normal;text-align:start;letter-spacing:0px;word-spacing:0px;writing-mode:lr-tb;text-anchor:start;fill:#f7c45b;fill-opacity:1;stroke:#000000;stroke-width:1.80785453;stroke-miterlimit:4;stroke-dasharray:none;stroke-opacity:1"
       x="4.3146019"
       y="153.99034"
       id="text855-8"
       inkscape:export-filename="C:\Users\soham\Downloads\HackUTD Stuff\Posters\Drafts\stats.png"
       inkscape:export-xdpi="82.559998"
       inkscape:export-ydpi="82.559998"><tspan
         sodipodi:role="line"
         x="4.3146019"
         y="153.99034"
         style="fill:#f7c45b;fill-opacity:1;stroke:#000000;stroke-width:1.80785453;stroke-miterlimit:4;stroke-dasharray:none;stroke-opacity:1"
         id="tspan891"><tspan
   id="tspan5406"
   style="fill:#000000;stroke-width:1.80785453">The VII</tspan> <tspan
   id="tspan5415"
   style="fill:#000000;stroke-width:1.80785453">Se</tspan><tspan
   style="fill:#000000;stroke-width:1.80785453"
   id="tspan897">a</tspan><tspan
   id="tspan5417"
   style="fill:#000000;stroke-width:1.80785453">s</tspan></tspan></text>
  </g>
  <g
     inkscape:label="GoldFront"
     inkscape:groupmode="layer"
     id="layer1"
     transform="translate(0.45090438,218.83437)">
    <g
       transform="matrix(2.0095645,0,0,2.0095645,193.63908,-159.26354)"
       id="g5347"
       inkscape:export-xdpi="82.559998"
       inkscape:export-ydpi="82.559998">
      <ellipse
         ry="22.806307"
         rx="22.737059"
         cy="133.36374"
         cx="412.52731"
         id="path895"
         style="opacity:1;fill:#000000;fill-opacity:1;fill-rule:evenodd;stroke:#000000;stroke-width:1.94406629;stroke-linejoin:round;stroke-miterlimit:4;stroke-dasharray:none;stroke-opacity:1;paint-order:markers fill stroke" />
      <ellipse
         style="opacity:1;fill:#f7c45b;fill-opacity:1;fill-rule:evenodd;stroke:#000000;stroke-width:1.63877141;stroke-linejoin:round;stroke-miterlimit:4;stroke-dasharray:none;stroke-opacity:1;paint-order:markers fill stroke"
         id="ellipse899"
         cx="413.15939"
         cy="133.36374"
         rx="19.431147"
         ry="18.962927" />
      <ellipse
         ry="14.693824"
         rx="15.0718"
         cy="133.36374"
         cx="413.15939"
         id="path5195"
         style="opacity:1;fill:#d59b24;fill-opacity:1;fill-rule:evenodd;stroke:#d59b24;stroke-width:1;stroke-linejoin:round;stroke-miterlimit:4;stroke-dasharray:none;stroke-opacity:1;paint-order:markers fill stroke" />
      <g
         transform="matrix(0.27042703,0,0,0.27042703,313.19127,86.51766)"
         id="g5164">
        <path
           inkscape:connector-curvature="0"
           class="cls-1"
           d="m 345.0195,170.13913 c -1.32292,-2.25689 -4.96623,-4.37885 -7.14375,-4.7625 -4.68048,-0.82814 -10.70504,4.49792 -11.90625,11.90625 -0.23813,1.4605 -1.05833,7.08554 2.38125,11.90625 0.87842,1.22767 3.40783,4.7625 7.14375,4.7625 3.65919,0 6.15685,-3.41841 7.14375,-4.7625 4.65931,-6.36587 5.87904,-13.11804 2.38125,-19.05 z"
           id="path22"
           style="stroke-width:0.26458332" />
        <path
           inkscape:connector-curvature="0"
           class="cls-7"
           d="m 340.257,174.90163 c -0.55298,-0.99219 -1.23296,-2.21191 -2.38125,-2.38125 -2.03465,-0.30162 -4.00579,2.91042 -4.7625,4.7625 -0.47096,1.14829 -1.50019,4.27567 0,7.14375 0.37835,0.72496 1.05833,2.01877 2.38125,2.38125 1.89442,0.52917 3.87085,-1.22502 4.7625,-2.38125 2.286,-2.97921 1.30175,-7.17814 0,-9.525 z"
           id="path24"
           style="stroke-width:0.26458332" />
        <path
           inkscape:connector-curvature="0"
           class="cls-1"
           d="m 397.407,162.99538 c 0.31485,-0.48419 3.55071,-5.31019 7.14375,-4.7625 1.76477,0.26459 3.16177,1.76477 4.7625,4.7625 2.99244,5.60652 8.2841,19.44159 2.38125,23.8125 -2.77548,2.05317 -6.99294,1.25148 -9.525,0 -7.81315,-3.86556 -9.32392,-16.84337 -4.7625,-23.8125 z"
           id="path26"
           style="stroke-width:0.26458332" />
        <path
           inkscape:connector-curvature="0"
           class="cls-7"
           d="m 399.78825,170.13913 c 0.17462,-0.39423 0.97367,-2.17487 2.38125,-2.38125 2.05052,-0.30427 4.01637,2.94481 4.7625,4.7625 0.34396,0.83609 1.67217,4.07723 0,7.14375 -0.51065,0.93134 -1.25942,2.30452 -2.38125,2.38125 -2.71198,0.18256 -6.87917,-7.19402 -4.7625,-11.90625 z"
           id="path28"
           style="stroke-width:0.26458332" />
        <path
           inkscape:connector-curvature="0"
           class="cls-8"
           d="m 405.8525,187.56724 a 10.694458,10.694458 0 0 1 2.78871,0 5.5059791,5.5059791 0 0 0 0.70114,-0.41011 c 5.88434,-4.03489 0.61119,-16.80898 -2.38125,-21.98423 -1.5875,-2.76754 -2.98979,-4.14866 -4.74927,-4.39737 -3.57981,-0.50536 -6.80508,3.95287 -7.11994,4.39737 -4.54024,6.43467 -3.03741,18.415 4.74663,21.98423 0.3466,0.15875 0.7276,0.30956 1.12977,0.44715 a 14.099646,14.099646 0 0 0 1.65629,0.23548 1.1033125,1.1033125 0 0 1 0.86254,-0.74877 3.0268333,3.0268333 0 0 1 2.36538,0.47625 z"
           id="path30"
           style="stroke-width:0.26458332" />
        <path
           inkscape:connector-curvature="0"
           class="cls-9"
           d="m 343.5881,188.85311 a 25.325916,25.325916 0 0 1 -1.32291,-8.23648 29.604229,29.604229 0 0 1 2.21191,-11.21833 c -0.40481,-0.26458 -0.79375,-0.54504 -1.18533,-0.83873 -0.26458,-0.1905 -0.51329,-0.40217 -0.762,-0.62706 -2.30981,4.53496 -3.54277,9.42181 -3.48985,14.02291 0.0159,1.45786 0.0635,5.00592 1.5531,8.84767 a 14.086416,14.086416 0 0 1 2.99508,-1.94998 z"
           id="path32"
           style="stroke-width:0.26458332" />
        <path
           inkscape:connector-curvature="0"
           class="cls-1"
           d="m 405.10637,182.01099 c 0,-14.2875 -13.08364,-25.38148 -14.2875,-26.19375 a 35.213395,35.213395 0 0 0 -10.58333,-4.71752 c -0.18521,-0.0423 -0.37306,-0.09 -0.56621,-0.14023 -2.34685,-0.62442 -5.25991,-1.85209 -7.14375,-4.51909 -1.81239,-2.52941 -2.23043,-5.75733 -2.43416,-5.70441 -0.20373,0.0529 0.4445,2.4421 0.20373,5.715 -0.10319,1.36789 -0.24078,3.06387 -0.98161,3.26231 -0.74083,0.19844 -1.85208,-1.34938 -1.99231,-1.56104 -0.92604,-1.34673 -1.05833,-2.75432 -1.18269,-2.74109 -0.12435,0.0132 0.49477,2.26484 -0.60589,3.95552 -0.48419,0.73819 -1.19592,1.2065 -1.905,1.67482 -0.31486,0.20373 -0.61913,0.37835 -0.90753,0.52916 -13.78743,4.51115 -22.33877,18.47057 -22.19854,30.47471 0.0238,2.14313 0.0979,8.81063 4.7625,14.2875 a 17.727083,17.727083 0 0 0 1.75154,1.78065 c 3.80207,3.51631 8.43757,4.63021 12.8323,5.63033 5.11704,1.16152 19.05,2.38125 33.3375,-4.7625 3.46075,-1.73037 11.90625,-7.46919 11.90625,-16.66875 0,-0.0661 0,-0.12964 0,-0.19579 0,-0.0661 -0.005,-0.0635 -0.005,-0.10583 z"
           id="path34"
           style="stroke-width:0.26458332" />
        <path
           inkscape:connector-curvature="0"
           class="cls-10"
           d="m 373.5945,179.66413 c 1.52665,-1.35202 3.60362,-4.63285 6.84742,-6.20183 a 16.949208,16.949208 0 0 1 10.48014,-1.35731 c 0.26459,0.0476 4.00844,1.32291 6.48494,5.17789 3.79942,5.90021 1.64835,14.84842 -4.7625,19.05 -1.39435,0.91281 -2.48444,1.48961 -4.7625,2.38125 -2.27806,0.89165 -12.49098,4.68313 -26.19375,2.38125 -4.83923,-0.81491 -6.31825,-1.75154 -7.14375,-2.38125 -3.70417,-2.83633 -5.10381,-7.80785 -4.7625,-11.90625 0.10319,-1.26471 0.58737,-6.12775 4.7625,-9.525 5.0456,-4.11162 11.18129,-2.57704 11.90625,-2.38125 a 13.49375,13.49375 0 0 1 4.7625,2.38125 z"
           id="path36"
           style="fill:#f7c45b;fill-opacity:1;stroke-width:0.26458332" />
        <path
           inkscape:connector-curvature="0"
           class="cls-11"
           d="m 370.90104,190.91686 c -0.12171,-0.508 0.64294,-1.12977 1.14829,-1.40758 1.42082,-0.77788 3.48457,-0.30427 3.64332,0.40216 0.12435,0.54769 -0.88371,1.29117 -1.72244,1.5875 -1.27529,0.42863 -2.91042,0.0741 -3.06917,-0.58208 z"
           id="path38"
           style="stroke-width:0.26458332" />
        <circle
           cx="379.67462"
           cy="192.63666"
           r="0.26458332"
           id="circle40"
           style="stroke-width:0.26458332" />
        <path
           inkscape:connector-curvature="0"
           class="cls-12"
           d="m 360.8945,186.6994 c -0.6694,0.16404 -0.99748,1.16417 -1.03452,1.83621 -0.0582,1.15623 0.69321,2.57175 1.62719,2.56911 0.79375,0 1.54781,-1.03982 1.5875,-1.99761 0.0476,-1.34144 -1.29646,-2.62996 -2.18017,-2.40771 z"
           id="path42"
           style="stroke-width:0.26458332" />
        <path
           inkscape:connector-curvature="0"
           class="cls-13"
           d="m 340.18027,178.4788 c 20.44965,7.79992 44.52673,3.83117 61.47594,-9.62554"
           id="path44"
           style="stroke:#f7c45b;stroke-width:0.26188925;stroke-miterlimit:4;stroke-dasharray:none;stroke-opacity:1" />
        <path
           inkscape:connector-curvature="0"
           class="cls-14"
           d="m 390.59398,175.82767 c 1.27794,5.55625 0.0476,10.19705 -2.62202,11.44323 -1.34938,0.62971 -2.78342,0.26459 -3.09827,0.17463 -2.62467,-0.74084 -4.55613,-3.70417 -4.7625,-7.51946 l 2.41564,-0.75935 5.62769,-2.19605 z"
           id="path46"
           style="fill:#1d1d1d;fill-opacity:1;stroke-width:0.26458332" />
        <path
           inkscape:connector-curvature="0"
           class="cls-15"
           d="m 390.24473,156.10828 c -3.556,-2.40771 -6.29444,-3.29936 -6.29444,-3.29936 -4.23333,-1.72773 -6.05896,-1.55575 -8.54339,-3.32052 -1.26471,-0.89958 -2.99244,-2.51089 -4.3868,-5.54302 -0.0556,3.54806 0.96838,5.57742 2.08227,6.80773 0.90753,1.00277 9.46944,4.97681 12.85875,7.00617 0.65617,0.39423 3.89467,2.78871 4.13809,3.00302 2.51883,2.19869 11.19187,10.45104 9.89541,21.26721 -1.12712,9.42181 -9.13077,15.27968 -11.90625,16.66875 a 54.400978,54.400978 0 0 1 -25.019,5.64091 54.361291,54.361291 0 0 0 29.55661,-5.36839 c 3.4581,-1.73038 11.90625,-7.47184 11.90625,-16.66875 0,-14.2875 -13.08629,-25.38148 -14.2875,-26.19375 z"
           id="path48"
           style="stroke-width:0.26458332" />
        <path
           class="cls-16"
           d="m 379.15075,195.39367 a 18.123958,18.123958 0 0 1 -2.64583,0.22489 19.460104,19.460104 0 0 1 -3.22792,-0.24077 20.211521,20.211521 0 0 1 -2.71198,-0.52917 18.459979,18.459979 0 0 1 -3.2094,-1.21179 c 0.0926,0.42334 0.20109,0.86519 0.32544,1.32292 q 0.21431,0.76994 0.4445,1.45785 a 14.2875,14.2875 0 0 0 5.6859,1.94998 15.610416,15.610416 0 0 0 6.45054,-0.52916 7.6305832,7.6305832 0 0 1 -0.52917,-0.86519 6.7601041,6.7601041 0 0 1 -0.58208,-1.57956 z"
           id="path50"
           inkscape:connector-curvature="0"
           style="fill:#ffffff;stroke:#000000;stroke-width:0.52916664px;stroke-miterlimit:10" />
        <path
           inkscape:connector-curvature="0"
           class="cls-17"
           d="m 372.37742,195.44653 a 9.7895832,9.7895832 0 0 0 -4.69107,1.51077"
           id="path52"
           style="stroke-width:0.26458332" />
        <path
           d="m 372.37742,196.91497 a 10.485437,10.485437 0 0 1 -2.40771,-0.52917 c -0.38894,-0.14023 -0.75671,-0.3175 -1.13506,-0.47625 l -1.14036,-0.48948 v 0.0212 a 4.9503541,4.9503541 0 0 0 1.03981,0.70908 6.3499999,6.3499999 0 0 0 1.18269,0.43656 9.2604166,9.2604166 0 0 0 2.47386,0.36777 z"
           id="path54"
           inkscape:connector-curvature="0"
           style="stroke-width:0.26458332" />
        <path
           inkscape:connector-curvature="0"
           class="cls-22"
           d="m 355.33825,183.35507 a 19.420416,19.420416 0 0 0 2.21985,0.6059 c 0.37307,0.0794 0.74613,0.14816 1.12448,0.20108 0.37836,0.0529 0.75142,0.10583 1.12713,0.13758 0.75671,0.0661 1.51077,0 2.26219,0.0688 0.75141,0.0688 1.50812,0.0794 2.29922,0.18786 v 0.0794 a 6.8288957,6.8288957 0 0 1 -2.30716,0.52917 9.3609582,9.3609582 0 0 1 -2.3495,-0.23283 14.851062,14.851062 0 0 1 -2.27277,-0.58738 15.671271,15.671271 0 0 1 -2.14313,-0.91546 z"
           id="path74"
           style="stroke-width:0.26458332" />
      </g>
    </g>
    <g
       id="g6060"
       transform="matrix(2.0095645,0,0,2.0095645,0.59638412,-158.02108)"
       inkscape:export-xdpi="82.559998"
       inkscape:export-ydpi="82.559998">
      <path
         style="font-style:normal;font-variant:normal;font-weight:normal;font-stretch:normal;font-size:83.0253067px;line-height:1.25;font-family:Righteous;-inkscape-font-specification:Righteous;font-variant-ligatures:normal;font-variant-caps:normal;font-variant-numeric:normal;font-feature-settings:normal;text-align:start;letter-spacing:0px;word-spacing:0px;writing-mode:lr-tb;text-anchor:start;fill:#f7c45b;fill-opacity:1;stroke:#000000;stroke-width:0.899625;stroke-miterlimit:4;stroke-dasharray:none;stroke-opacity:1"
         d="m 162.40262,96.993565 19.0133,58.133905 h 11.63497 l 11.87764,-34.88146 c -4.72142,3.24959 -8.63188,13.18961 -14.63321,5.87993 l -3.08233,9.66422 c -13.44661,-9.88134 -18.04673,-24.10861 -24.81037,-38.796595 z m 55.25555,16.536455 v 41.59745 h 11.63495 v -33.75444 c -3.05388,-9.89689 -7.07188,-11.27728 -11.63495,-7.84301 z m 22.37796,10.5914 v 31.00605 h 11.63494 v -38.62323 c -3.52486,5.63181 -6.75358,13.85481 -11.63494,7.61718 z"
         id="text855-8-5"
         inkscape:connector-curvature="0"
         sodipodi:nodetypes="ccccccccccccccccc" />
      <path
         style="font-style:normal;font-variant:normal;font-weight:normal;font-stretch:normal;font-size:83.0253067px;line-height:1.25;font-family:Righteous;-inkscape-font-specification:Righteous;font-variant-ligatures:normal;font-variant-caps:normal;font-variant-numeric:normal;font-feature-settings:normal;text-align:start;letter-spacing:0px;word-spacing:0px;writing-mode:lr-tb;text-anchor:start;fill:#f7c45b;fill-opacity:1;stroke:#000000;stroke-width:0.899625;stroke-miterlimit:4;stroke-dasharray:none;stroke-opacity:1"
         d="m 52.99603,130.67234 v 24.59105 h 11.067547 v -24.81038 c 0,-1.13511 0.216112,-2.2024 0.648547,-3.20238 0.432408,-1.02701 1.027112,-1.91907 1.783874,-2.67581 0.756734,-0.75674 1.648803,-1.35145 2.67581,-1.78387 1.02698,-0.43243 2.121376,-0.64854 3.283506,-0.64854 1.135115,0 2.202418,0.21611 3.202384,0.64854 0.999993,0.43242 1.878753,1.02713 2.635515,1.78387 0.756734,0.75674 1.350909,1.6488 1.783344,2.67581 0.432435,0.99998 0.64905,2.06727 0.64905,3.20238 h -0.08112 v 24.81038 h 11.148141 v -24.81038 c 0,-2.67562 -0.51345,-5.1888 -1.54046,-7.5401 -25.879513,-11.23601 -32.894817,6.52193 -37.256138,7.75943 z m -51.398582,-21.83468 17.38621,-0.0491 v 46.47486 h 11.594121 v -33.64778 c -0.349796,-5.31305 0.09193,-11.38922 -5.434068,-15.3795 -8.291718,-5.98739 -23.512658,-5.9053 -23.500554,-8.969192 l -0.04571,11.570702 z m 97.53324,14.92636 c -1.16213,2.83778 -1.74355,5.97275 -1.74355,9.40511 0,3.35128 0.58142,6.43261 1.74355,9.24336 1.162152,2.78373 2.742912,5.18911 4.742872,7.2161 2.02697,2.02698 4.37821,3.60775 7.05384,4.74286 2.70264,1.13511 5.58112,1.70274 8.63513,1.70274 1.81075,0 3.56729,-0.21612 5.26994,-0.64854 1.72971,-0.4054 3.36516,-1.01338 4.90567,-1.82418 1.56752,-0.81079 3.01342,-1.79737 4.33771,-2.95951 1.35133,-1.16214 2.54021,-2.47315 3.56722,-3.93257 l -8.10803,-8.14834 c -0.43243,0.97295 -0.99954,1.86501 -1.70222,2.6758 -0.67567,0.78377 -1.45992,1.4592 -2.3518,2.02675 -0.86485,0.54053 -1.79726,0.95948 -2.79723,1.25677 -0.99999,0.29729 -2.0402,0.44597 -3.12126,0.44597 -0.43244,0 -0.86466,-0.0133 -1.2971,-0.0403 -0.43241,-0.0541 -0.86516,-0.14857 -1.29759,-0.2837 l 20.75637,-25.01346 c -1.027,-1.45943 -2.21591,-2.76992 -3.56724,-3.93206 -7.17333,1.77516 -25.82962,7.64896 -35.026282,8.0672 z m 20.431842,-2.39159 c 0.54051,0 1.05399,0.0271 1.54045,0.0811 0.51351,0.0541 1.02698,0.17565 1.54049,0.36484 l -12.89172,17.10748 c -0.21622,-0.37837 -0.39198,-0.8106 -0.5271,-1.29708 -0.13513,-0.48647 -0.25673,-0.98666 -0.36484,-1.50016 -0.0811,-0.54053 -0.14851,-1.06728 -0.20256,-1.58078 -0.027,-0.51351 -0.0403,-0.97334 -0.0403,-1.37873 0,-1.81078 0.28355,-3.4319 0.85111,-4.86431 0.56756,-1.45942 1.33802,-2.703 2.31097,-3.73 1,-1.02701 2.16181,-1.81075 3.4861,-2.35128 1.35133,-0.56755 2.78392,-0.85111 4.29742,-0.85111 z"
         id="text855-8-7"
         inkscape:connector-curvature="0"
         sodipodi:nodetypes="cccscccscccccccsccsccccsscsccccsccccccccsccccccccsccscccsccc" />
      <path
         inkscape:connector-curvature="0"
         style="font-style:normal;font-variant:normal;font-weight:normal;font-stretch:normal;font-size:83.0253067px;line-height:1.25;font-family:Righteous;-inkscape-font-specification:Righteous;font-variant-ligatures:normal;font-variant-caps:normal;font-variant-numeric:normal;font-feature-settings:normal;text-align:start;letter-spacing:0px;word-spacing:0px;writing-mode:lr-tb;text-anchor:start;fill:#f7c45b;fill-opacity:1;stroke:#000000;stroke-width:0.899625;stroke-miterlimit:4;stroke-dasharray:none;stroke-opacity:1"
         d="m 283.61703,107.78743 c -0.9189,2.10807 -1.37875,4.36478 -1.37875,6.77013 0,2.40536 0.45985,4.67587 1.37875,6.81096 0.91889,2.10806 2.16193,3.9591 3.72948,5.55367 1.59457,1.56753 3.44559,2.8111 5.55366,3.73 2.10807,0.9189 4.36478,1.37821 6.77013,1.37821 h 11.63495 c 0.81079,0 1.56747,0.14868 2.27015,0.44597 0.70268,0.29729 1.31119,0.71624 1.8247,1.25677 0.54052,0.5135 0.95948,1.12149 1.25677,1.82418 0.29728,0.70268 0.44595,1.45935 0.44595,2.27014 0,0.8108 -0.14867,1.56746 -0.44595,2.27015 -0.29729,0.70269 -0.71625,1.32447 -1.25677,1.865 -0.51351,0.5135 -1.12202,0.91865 -1.8247,1.21595 -0.70268,0.29729 -1.45936,0.44596 -2.27015,0.44596 h -25.82373 v 11.63495 h 25.82373 c 2.40535,0 4.66206,-0.45931 6.77013,-1.37821 2.13508,-0.9189 3.98663,-2.16195 5.55419,-3.72949 1.59456,-1.59456 2.8376,-3.44611 3.72948,-5.55418 0.9189,-2.10806 1.37822,-4.36477 1.37822,-6.77013 0,-2.40535 -0.45932,-4.66206 -1.37822,-6.77013 -15.00066,-4.99669 -31.92076,2.62002 -43.74202,-23.2699 z m 62.83647,46.58011 c 2.70264,1.13511 5.58062,1.70274 8.6346,1.70274 1.81078,0 3.56783,-0.21612 5.2705,-0.64854 1.72969,-0.4054 3.3646,-1.01339 4.90511,-1.82418 3.20979,-1.72405 5.95086,-4.14189 7.90546,-6.89209 -6.5156,3.69997 -26.99065,4.51844 -39.35939,-5.84632 -0.42635,-0.35727 1.21609,3.72027 4.07946,7.39785 2.66184,3.41874 7.87398,6.46942 8.56426,6.11054 z m 106.6596,-14.79703 c 0.7568,0 1.4056,0.12159 1.9462,0.36483 0.5405,0.24324 0.8108,0.75671 0.8108,1.54048 0,0.75674 -0.2703,1.4056 -0.8108,1.94613 -0.5406,0.54053 -1.1894,0.81081 -1.9462,0.81081 h -25.2966 v 11.02671 h 25.2966 c 1.8919,0 3.676,-0.35151 5.3516,-1.0542 1.6757,-0.72971 3.1349,-1.71577 4.3781,-2.95899 1.2432,-1.27024 2.2298,-2.72993 2.9595,-4.37854 0.7297,-1.67564 1.0945,-3.47304 1.0945,-5.39192 0,-1.89185 -0.3648,-3.63458 -1.0945,-5.22914 -0.7297,-1.59456 -1.7163,-2.95973 -2.9595,-4.09484 -0.89717,4.50614 -5.10765,6.14076 -9.7297,7.41867 z"
         id="path5413"
         sodipodi:nodetypes="csccssssccscccsccscccscccscccsscccscsccscccsscc" />
    </g>
    <ellipse
       style="opacity:1;fill:#000000;fill-opacity:1;fill-rule:evenodd;stroke:none;stroke-width:2.00956464;stroke-linejoin:round;stroke-miterlimit:4;stroke-dasharray:none;stroke-opacity:1;paint-order:markers fill stroke"
       id="path5493"
       cx="801.24017"
       cy="108.21783"
       rx="25.635405"
       ry="30.19281"
       inkscape:export-xdpi="82.559998"
       inkscape:export-ydpi="82.559998" />
    <ellipse
       style="opacity:1;fill:#f7c45b;fill-opacity:1;fill-rule:evenodd;stroke:none;stroke-width:2.00956464;stroke-linejoin:round;stroke-miterlimit:4;stroke-dasharray:none;stroke-opacity:1;paint-order:markers fill stroke"
       id="path6041"
       cx="779.78241"
       cy="93.406258"
       rx="4.557405"
       ry="5.1270809"
       inkscape:export-xdpi="82.559998"
       inkscape:export-ydpi="82.559998" />
    <path
       style="fill:#f7c45b;fill-opacity:1;stroke:#000000;stroke-width:0.53169727px;stroke-linecap:butt;stroke-linejoin:miter;stroke-opacity:1"
       d="m 767.24946,138.41062 c 0,0 21.15249,-1.67518 22.30504,-5.97659 1.15255,-4.30143 7.25685,-0.0981 2.62029,4.53852 -4.63657,4.63657 -14.86103,11.50234 -24.92533,1.43807 z"
       id="path6043"
       inkscape:connector-curvature="0"
       inkscape:export-xdpi="82.559998"
       inkscape:export-ydpi="82.559998" />
    <path
       inkscape:connector-curvature="0"
       style="font-style:normal;font-variant:normal;font-weight:normal;font-stretch:normal;font-size:129.06729126px;line-height:1.25;font-family:'Monotype Corsiva';-inkscape-font-specification:'Monotype Corsiva';font-variant-ligatures:normal;font-variant-caps:normal;font-variant-numeric:normal;font-feature-settings:normal;text-align:start;letter-spacing:0px;word-spacing:0px;writing-mode:lr-tb;text-anchor:start;fill:#000000;fill-opacity:1;stroke:#000000;stroke-width:2.65848637;stroke-miterlimit:4;stroke-dasharray:none;stroke-opacity:1"
       d="m 680.46461,-217.50471 c -2.27965,0 -4.22168,0.80197 -5.82586,2.40614 -1.5197,1.60417 -2.27944,3.673 -2.27944,6.2059 0,1.35088 0.16908,2.61671 0.50681,3.79873 0.25325,0.8443 1.47685,3.46152 3.67201,7.85188 4.13708,8.61186 6.20592,17.73038 6.20592,27.35541 0,13.84652 -2.6595,28.74891 -7.9786,44.70618 -5.3191,15.87285 -12.19974,29.508371 -20.64272,40.906423 -8.3586,11.398053 -17.4771,19.882628 -27.3554,25.455007 -7.42983,4.221501 -15.36706,6.3326 -23.81009,6.3326 -8.94958,0 -16.42084,-3.419186 -22.4154,-10.25802 -5.91008,-6.838834 -8.86542,-16.422251 -8.86542,-28.749036 0,-11.060334 2.91307,-24.822644 8.73871,-41.286504 8.27417,-23.21826 16.67525,-42.34076 25.20267,-57.3693 -2.11073,0.42215 -7.89459,0.88601 -17.35077,1.39259 -13.84652,0.75987 -22.96502,1.6041 -27.3554,2.53283 -8.86515,1.85746 -16.33746,4.77052 -22.41647,8.73873 -5.99451,3.96822 -10.89084,9.24492 -14.69019,15.83046 -3.79934,6.50111 -5.69913,13.00242 -5.69913,19.50353 0,4.05264 1.01329,7.34504 3.03961,9.87794 2.11075,2.5329 4.55892,3.79976 7.34511,3.79976 2.27961,0 4.17939,-0.80197 5.69913,-2.40614 1.51975,-1.60417 2.27944,-3.63074 2.27944,-6.07921 0,-1.94189 -1.01331,-4.64363 -3.03961,-8.10526 -1.94189,-3.03949 -2.9129,-5.44539 -2.9129,-7.21842 0,-4.30593 1.81525,-8.65491 5.44575,-13.04527 3.71492,-4.39036 9.75133,-7.97861 18.10988,-10.7648 8.3586,-2.87062 17.8152,-4.17871 28.36897,-3.92542 -13.50883,29.04393 -22.41604,50.86922 -26.72194,65.47561 -3.2928,11.14477 -4.93898,22.036278 -4.93898,32.674461 0,12.917798 3.54599,23.809308 10.63809,32.674461 7.09215,8.78072 17.26623,13.170929 30.52171,13.170929 16.29503,0 31.82926,-5.48802 46.60454,-16.463921 14.85966,-10.975907 27.94681,-29.255212 39.26042,-54.83751 11.31361,-25.5823 16.97071,-51.29063 16.97071,-77.12622 0,-12.0735 -1.64725,-20.98174 -4.94,-26.72298 -2.27965,-4.22151 -5.40294,-6.33156 -9.37116,-6.33156 z m -195.79338,0.50573 c -4.64366,0 -10.04715,1.09781 -16.21054,3.293 -6.07896,2.11075 -11.7783,5.19286 -17.09739,9.2455 -5.23467,4.05265 -9.62487,8.65417 -13.17093,13.8044 -3.46163,5.15023 -6.45922,11.6938 -8.99213,19.63022 -2.44847,7.93643 -7.6829,29.00097 -15.70375,63.19513 l -16.59062,69.021995 h 18.87006 l 12.28512,-54.584127 c 4.55921,3.799354 8.14745,7.641176 10.76479,11.524953 3.3772,4.981371 7.17676,12.452658 11.39826,22.415405 9.03401,21.023076 15.36626,34.49058 18.99675,40.400682 6.33225,10.2160315 13.12836,17.6450547 20.38934,22.2887072 7.26098,4.6436526 15.49301,6.9660638 24.69589,6.9660638 8.94958,5e-6 16.21059,-2.3646758 21.78299,-7.0927566 5.57235,-4.7280808 8.35866,-10.1315712 8.35866,-16.2105354 0,-3.123913 -0.84423,-5.656605 -2.53285,-7.598496 -1.68862,-1.857458 -3.71518,-2.786216 -6.07921,-2.786216 -2.02633,0 -3.79931,0.759705 -5.31905,2.279445 -1.51974,1.519739 -2.27945,3.250467 -2.27945,5.192353 0,1.519745 0.4649,3.377256 1.39363,5.572437 0.8443,2.0263252 1.26589,3.6312959 1.26589,4.8133175 0,1.8574578 -1.35035,3.6727095 -4.05211,5.44574442 -2.70176,1.85745778 -6.12199,2.78621598 -10.25905,2.78621598 -7.09213,0 -13.59344,-2.78627447 -19.50353,-8.3586533 -5.99454,-5.5723836 -12.4948,-16.8020006 -19.50249,-33.6880096 -5.91011,-14.184242 -10.76521,-24.273788 -14.56456,-30.268318 -3.71492,-6.078964 -7.51448,-10.807279 -11.39826,-14.184482 -3.88379,-3.461631 -9.07596,-6.627234 -15.57708,-9.497857 19.25005,-0.50658 33.56075,-4.306137 42.93249,-11.398258 9.37173,-7.09212 14.05778,-15.1551 14.05778,-24.18911 0,-4.81251 -1.47715,-8.78113 -4.4322,-11.90504 -2.87061,-3.20834 -6.41659,-4.81227 -10.6381,-4.81227 -5.99453,0 -12.28555,1.85751 -18.8711,5.57243 -8.69629,4.98138 -17.09633,12.07333 -25.20161,21.2762 l 8.99108,-40.52634 c 3.29277,-15.02854 5.8265,-24.90677 7.59953,-29.63485 1.85747,-4.81251 3.92526,-8.14717 6.20487,-10.00463 2.36404,-1.85746 4.8555,-2.78622 7.47284,-2.78622 1.85746,0 4.00978,0.25358 6.45825,0.76016 7.51427,1.26645 13.12908,1.89936 16.844,1.89936 2.95505,0 5.40322,-0.84423 7.34511,-2.53283 1.94189,-1.6886 2.91291,-3.71517 2.91291,-6.07921 0,-2.78619 -1.09781,-5.02303 -3.29299,-6.71164 -2.11075,-1.6886 -5.36088,-2.53387 -9.75124,-2.53387 z m 376.00967,7.09276 c -2.11079,0 -3.926,0.75971 -5.44575,2.27945 -1.51975,1.51974 -2.2805,3.41952 -2.2805,5.69913 0,0.50658 0.12681,1.56212 0.38011,3.1663 0.2533,1.77303 0.38005,2.95433 0.38005,3.54534 0,2.95505 -1.09779,5.31972 -3.29296,7.09275 -2.19521,1.77303 -5.95251,2.65953 -11.27161,2.65953 -5.31904,0 -13.88814,-0.7597 -25.70836,-2.27945 -16.63271,-2.19518 -28.74881,-3.29299 -36.34757,-3.29299 -15.95724,0 -29.50824,2.65949 -40.65298,7.97858 -11.1448,5.31909 -19.9252,12.83368 -26.34188,22.54313 -6.33225,9.70945 -9.49787,19.71447 -9.49787,30.01493 0,7.68314 1.60392,14.01539 4.81229,18.99676 2.19516,3.3772 5.06595,5.06566 8.61206,5.06566 2.36403,0 4.38953,-0.80197 6.07815,-2.40614 1.68861,-1.60417 2.53284,-3.54621 2.53284,-5.82582 0,-2.61733 -1.43489,-5.48813 -4.30552,-8.61204 -3.03945,-3.3772 -4.89699,-5.82537 -5.57246,-7.34511 -0.92871,-2.19518 -1.39256,-4.60212 -1.39256,-7.21945 0,-7.42984 2.27912,-14.35274 6.83831,-20.76943 4.64369,-6.41668 11.52433,-11.31405 20.64278,-14.69125 9.20283,-3.3772 21.61482,-5.06566 37.23439,-5.06566 2.5329,0 6.29019,0.0845 11.27155,0.25339 l -0.88687,3.1663 -16.21054,67.12158 c -7.00767,28.030772 -11.5247,44.410302 -13.551,49.138383 -1.94192,4.643653 -4.30659,7.937087 -7.09279,9.878978 -3.88378,2.701761 -10.08922,4.474748 -18.61663,5.319052 l -1.77268,6.965026 c 8.94958,-1.519739 17.64549,-2.279444 26.08847,-2.279444 4.89693,0 10.42722,0.253577 16.5906,0.760157 8.18973,0.759875 14.05813,1.139204 17.60418,1.139204 3.71491,0 8.48445,-0.632912 14.31015,-1.899361 l 1.77369,-7.218413 c -6.16338,1.435306 -12.07405,2.152747 -17.73088,2.152747 -3.71492,0 -8.39991,-0.338107 -14.05675,-1.013548 l 6.96502,-30.521704 6.71268,-26.721947 11.0172,-43.81933 c 4.47476,-17.56144 7.13527,-27.86127 7.9796,-30.90075 6.50112,0.50658 12.62202,0.75912 18.36328,0.75912 16.04168,0 27.48157,-2.32137 34.32042,-6.96502 6.83885,-4.64365 10.25804,-10.17394 10.25804,-16.59062 0,-3.12391 -0.84423,-5.61434 -2.53285,-7.4718 -1.60418,-1.85746 -3.67195,-2.78622 -6.20485,-2.78622 z m -653.10911,5.82583 c -8.61186,0 -16.42126,2.15232 -23.42895,6.45825 -6.92326,4.30593 -13.17098,11.3144 -18.74336,21.02385 -5.57239,9.62502 -12.03143,26.67973 -19.37684,51.16444 -12.83336,1.60417 -30.39523,2.40613 -52.684757,2.40613 7.683127,-31.23911 14.649337,-53.02213 20.897157,-65.34891 -23.218261,0 -38.711297,0.88649 -46.478862,2.65952 -13.508803,3.12391 -23.809664,8.44288 -30.901786,15.95715 -7.092122,7.51427 -10.6381,16.16894 -10.6381,25.96282 0,5.40352 1.055549,9.54015 3.166299,12.41077 2.110751,2.78619 4.643443,4.17881 7.598494,4.17881 2.364041,0 4.306083,-0.75971 5.825824,-2.27945 1.60417,-1.60417 2.406138,-3.63074 2.406138,-6.07921 0,-2.11075 -1.013285,-4.85372 -3.039606,-8.23092 -2.27961,-3.63049 -3.419686,-6.62808 -3.419686,-8.99212 0,-7.00769 4.222193,-13.29768 12.665196,-18.87006 8.527434,-5.57238 21.234196,-8.35866 38.120199,-8.35866 l -12.411808,46.35217 c -11.144763,41.961719 -19.629333,68.261742 -25.455005,78.899925 -5.741241,10.638183 -11.905476,15.95715 -18.491018,15.95715 -1.60417,0 -3.081315,-0.380371 -4.432195,-1.140241 -1.266451,-0.844303 -2.954912,-2.659555 -5.065663,-5.445745 -3.461631,-4.643652 -6.838554,-6.965026 -10.131325,-6.965026 -2.026321,0 -3.757046,0.759705 -5.1923564,2.279444 -1.4353105,1.435312 -2.1537894,3.208299 -2.1537894,5.319047 0,3.546064 1.815252,6.501392 5.4457428,8.86543 4.981372,3.377202 10.976553,5.065665 17.984245,5.065665 7.176553,0 14.647839,-2.574956 22.415402,-7.725189 7.851991,-5.065804 14.818193,-13.001986 20.897157,-23.809031 6.078964,-10.80704 11.988577,-27.482417 17.729817,-50.025239 6.332254,-0.59101 12.495446,-1.0559 18.489976,-1.39362 l 34.19478,-1.2659 -9.75227,37.993506 c -4.39037,17.308155 -8.31568,30.816887 -11.77731,40.526343 3.88378,-1.182021 7.64108,-1.772673 11.27157,-1.772673 4.55922,0 10.04724,0.294805 16.46392,0.885818 5.99453,0.591008 10.80633,0.886855 14.43683,0.886855 2.27961,0 5.57305,-0.253582 9.87897,-0.760162 l 1.64598,-7.218412 c -4.39036,0.844298 -8.31671,1.265896 -11.77834,1.265896 -2.95505,0 -6.8381,-0.421598 -11.65061,-1.265896 -2.61733,-0.422152 -4.6439,-0.717994 -6.07921,-0.886856 14.43754,-67.459589 27.1443,-111.658549 38.1202,-132.597199 6.1634,-11.73577 12.41112,-17.60313 18.74337,-17.60313 2.95505,0 6.33198,2.11006 10.13133,6.33156 3.71492,4.2215 7.04958,6.3326 10.00463,6.3326 2.27961,0 4.13713,-0.67518 5.57243,-2.02606 1.43531,-1.35088 2.1538,-3.0816 2.1538,-5.19235 0,-3.63049 -2.02657,-6.8394 -6.07922,-9.62559 -3.96821,-2.87062 -9.66755,-4.3055 -17.09739,-4.3055 z m 720.86414,12.79085 c -18.91231,0 -36.09379,4.01087 -51.54448,12.03172 -15.4507,8.02086 -27.52459,18.82784 -36.22087,32.42108 -8.61185,13.5088 -12.91753,27.52365 -12.91753,42.04562 0,8.696289 2.87079,17.181901 8.61206,25.456041 4.22146,5.910103 8.56942,8.86543 13.04423,8.86543 2.0263,0 3.7993,-0.760742 5.31905,-2.280481 1.60413,-1.604168 2.40614,-3.419425 2.40614,-5.445745 0,-1.604168 -0.42264,-2.954525 -1.26698,-4.052113 -0.75985,-1.097593 -2.49058,-2.406722 -5.19234,-3.926462 -9.45613,-5.065798 -14.18446,-13.001986 -14.18446,-23.80903 0,-11.06033 3.84183,-22.4157 11.52496,-34.06705 7.76757,-11.73577 18.2797,-21.15014 31.53523,-28.24226 13.25553,-7.09212 27.35492,-10.6381 42.29902,-10.6381 17.7303,0 32.08325,5.7416 43.05918,17.22408 10.97588,11.39806 16.4639,26.51072 16.4639,45.33862 0,14.3531 -3.2501,27.481466 -9.75122,39.386099 -6.41668,11.904633 -15.1136,20.980891 -26.08953,27.228717 -10.97588,6.163392 -23.85067,9.245509 -38.62595,9.245509 -5.57235,0 -11.98913,-0.717441 -19.2501,-2.152752 7.51427,-13.002226 14.2681,-32.252555 20.26261,-57.750423 l 8.35866,-35.33398 c 2.7862,-11.90464 5.9951,-22.54257 9.62558,-31.9143 -12.49563,2.95505 -23.34486,4.81256 -32.54774,5.57243 l -1.26693,5.44575 c 1.77305,-0.25329 2.95538,-0.38008 3.54636,-0.38008 1.51975,0 2.70103,0.42159 3.54536,1.26589 0.84428,0.75987 1.26693,1.81542 1.26693,3.1663 0,1.43531 -0.25357,3.16604 -0.76017,5.19236 l -10.13133,41.2865 -8.73871,33.054536 c -4.22152,13.002226 -7.55616,21.445573 -10.00463,25.329356 -1.35088,2.195176 -2.99707,3.756851 -4.93899,4.685582 -1.85748,0.928727 -6.6703,1.603908 -14.43786,2.026054 l -2.91291,6.205907 c 7.76757,-0.25329 13.55142,-0.380084 17.35077,-0.380084 8.18974,0 16.84332,0.338112 25.96177,1.013548 10.80707,0.844303 18.40619,1.265897 22.79652,1.265897 13.59327,0 27.18653,-3.08108 40.77975,-9.244472 13.67764,-6.24782 25.32888,-16.675473 34.95388,-31.281867 9.62505,-14.690822 14.43684,-30.774507 14.43684,-48.251527 0,-18.8279 -6.92289,-34.44772 -20.76941,-46.85894 -13.76213,-12.49564 -32.29396,-18.74336 -55.59666,-18.74336 z m -634.6191,42.04666 -8.35866,1.77267 -3.03856,4.93897 c -2.7862,-0.33772 -5.53021,-0.50678 -8.23197,-0.50678 -10.72261,0 -19.50406,1.60394 -26.3429,4.81228 -8.86515,4.2215 -17.30745,10.80733 -25.32831,19.75691 -8.02085,8.94959 -14.43763,18.912342 -19.25014,29.888243 -4.72808,10.975906 -7.09276,20.938658 -7.09276,29.88824 0,7.514276 1.77299,13.592942 5.31905,18.236594 2.61733,3.461631 6.37463,5.193396 11.27157,5.193396 5.15023,0 10.80731,-1.94204 16.9707,-5.825823 10.04717,-6.24782 18.7008,-13.72015 25.96178,-22.416442 l -5.06566,17.224083 c -0.67545,2.195182 -1.01252,3.925909 -1.01252,5.192359 0,1.941891 0.54839,3.419031 1.64598,4.432197 1.09759,1.013159 2.74379,1.519282 4.93897,1.519282 3.03948,0 6.16386,-0.590652 9.3722,-1.772673 4.89695,-1.77303 10.04685,-4.51704 15.45038,-8.231961 2.70176,-1.857458 8.86495,-7.176424 18.48998,-15.957149 l -4.05212,-4.938968 c -4.81251,4.643652 -9.83667,8.527738 -15.07133,11.651646 -2.95505,1.773029 -5.10737,2.659528 -6.45825,2.659528 -2.11075,0 -3.1663,-1.309129 -3.1663,-3.926462 0,-2.617333 0.92876,-8.443459 2.78622,-17.477469 3.3772,-16.632719 6.96544,-31.322751 10.76479,-44.071681 z m 77.76072,3.92542 c -9.96274,0 -18.91221,2.91306 -26.84863,8.73873 -10.1316,7.51428 -18.744,18.32126 -25.83613,32.42108 -7.09212,14.099811 -10.6381,27.81986 -10.6381,41.159805 0,8.02085 1.6462,14.647909 4.93897,19.882569 3.3772,5.234661 8.73844,7.852919 16.08384,7.852919 13.84653,0 30.81775,-7.89496 50.9121,-23.683376 l -2.65953,-7.345105 c -13.67766,11.566915 -25.45567,17.350776 -35.33398,17.350776 -4.13707,0 -7.34598,-1.6895 -9.62559,-5.066703 -3.12391,-4.390357 -4.68559,-10.595817 -4.68559,-18.616672 0,-10.891473 1.85752,-21.740719 5.57244,-32.547763 3.71492,-10.80705 7.59797,-18.06805 11.65061,-21.78297 4.13707,-3.79936 8.27474,-5.69913 12.41181,-5.69913 3.20834,0 7.21818,1.43591 12.03069,4.30654 4.64365,2.70176 8.44321,4.05211 11.39826,4.05211 3.03948,0 5.40416,-0.80197 7.09276,-2.40614 1.6886,-1.6886 2.53283,-3.84092 2.53283,-6.45825 0,-3.3772 -1.60498,-6.248 -4.81332,-8.61204 -3.20834,-2.36404 -7.93561,-3.54638 -14.18344,-3.54638 z m 670.83895,1.14024 c -3.7994,0 -6.8393,1.47714 -9.1189,4.4322 -3.1238,3.96821 -4.6855,8.56973 -4.6855,13.80439 0,3.63049 1.0967,6.62808 3.2919,8.99213 2.2797,2.27961 5.0659,3.41864 8.3587,3.41864 3.9682,0 7.2616,-1.5194 9.879,-4.55889 2.6173,-3.12391 3.9254,-7.47185 3.9254,-13.04423 0,-3.79935 -1.139,-6.92373 -3.4187,-9.37221 -2.1952,-2.44847 -4.9391,-3.67203 -8.2319,-3.67203 z m -574.96936,10.00463 c 2.44847,0 4.5173,0.97102 6.2059,2.91291 1.77303,1.94189 2.65953,4.51685 2.65953,7.72519 0,4.47479 -1.51941,8.61142 -4.55889,12.41077 -2.95505,3.79935 -7.97921,6.8392 -15.07133,9.11882 -7.00769,2.279608 -16.2097,3.37742 -27.60776,3.292992 l 1.89936,-8.865432 c 16.37943,-17.73031 28.53677,-26.59525 36.47319,-26.59525 z m -209.21768,4.68558 c 3.12391,0 6.96573,0.4649 11.52495,1.39363 L 259.243,-88.580587 c -3.1239,11.820204 -8.02023,20.896463 -14.69021,27.228717 -6.66997,6.24782 -12.91873,9.372201 -18.7444,9.372201 -3.12392,0 -5.65661,-1.266864 -7.5985,-3.799764 -1.94189,-2.532899 -2.91291,-6.669531 -2.91291,-12.410771 0,-10.807045 2.40694,-21.614026 7.21945,-32.421066 4.89694,-10.89148 10.17364,-18.40607 15.83046,-22.54314 5.65681,-4.2215 12.28386,-6.3326 19.88257,-6.3326 z m 766.07604,63.322865 c -3.7993,0 -6.8381,1.477145 -9.1177,4.432196 -3.124,3.968211 -4.6867,8.611997 -4.6867,13.931091 0,3.630493 1.0979,6.62808 3.293,8.992123 2.2796,2.279609 5.0659,3.419685 8.3587,3.419685 3.9682,0 7.2606,-1.562711 9.8779,-4.686624 2.6173,-3.123908 3.9265,-7.429587 3.9265,-12.917543 0,-3.799349 -1.1401,-6.922693 -3.4197,-9.371164 -2.1952,-2.5329 -4.9392,-3.799764 -8.232,-3.799764 z"
       id="text6047" />
    <text
       xml:space="preserve"
       style="font-style:normal;font-variant:normal;font-weight:normal;font-stretch:normal;font-size:259.36904907px;line-height:1.25;font-family:'Monotype Corsiva';-inkscape-font-specification:'Monotype Corsiva';font-variant-ligatures:normal;font-variant-caps:normal;font-variant-numeric:normal;font-feature-settings:normal;text-align:start;letter-spacing:0px;word-spacing:0px;writing-mode:lr-tb;text-anchor:start;fill:#f7c45b;fill-opacity:1;stroke:#000000;stroke-width:2.65848637;stroke-miterlimit:4;stroke-dasharray:none;stroke-opacity:1"
       x="-4.5673981"
       y="-38.808968"
       id="text12"><tspan
         sodipodi:role="line"
         id="tspan10"
         x="-4.5673981"
         y="-38.808968"
         style="font-style:normal;font-variant:normal;font-weight:normal;font-stretch:normal;font-family:'Monotype Corsiva';-inkscape-font-specification:'Monotype Corsiva';fill:#f7c45b;fill-opacity:1;stroke:#000000;stroke-width:2.65848637;stroke-miterlimit:4;stroke-dasharray:none;stroke-opacity:1">HackUTD:</tspan></text>
    <g
       id="g6106"
       transform="matrix(2.0095645,0,0,2.0095645,188.13385,-159.26354)"
       inkscape:export-xdpi="82.559998"
       inkscape:export-ydpi="82.559998">
      <ellipse
         style="opacity:1;fill:#000000;fill-opacity:1;fill-rule:evenodd;stroke:#000000;stroke-width:1.94406629;stroke-linejoin:round;stroke-miterlimit:4;stroke-dasharray:none;stroke-opacity:1;paint-order:markers fill stroke"
         id="ellipse6062"
         cx="412.52731"
         cy="133.36374"
         rx="22.737059"
         ry="22.806307" />
      <ellipse
         ry="18.962927"
         rx="19.431147"
         cy="133.36374"
         cx="413.15939"
         id="ellipse6064"
         style="opacity:1;fill:#f7c45b;fill-opacity:1;fill-rule:evenodd;stroke:#000000;stroke-width:1.63877141;stroke-linejoin:round;stroke-miterlimit:4;stroke-dasharray:none;stroke-opacity:1;paint-order:markers fill stroke" />
      <ellipse
         style="opacity:1;fill:#d59b24;fill-opacity:1;fill-rule:evenodd;stroke:#d59b24;stroke-width:1;stroke-linejoin:round;stroke-miterlimit:4;stroke-dasharray:none;stroke-opacity:1;paint-order:markers fill stroke"
         id="ellipse6066"
         cx="413.15939"
         cy="133.36374"
         rx="15.0718"
         ry="14.693824" />
      <g
         id="g6104"
         transform="matrix(0.27042703,0,0,0.27042703,313.19127,86.51766)">
        <path
           style="stroke-width:0.26458332"
           id="path6068"
           d="m 345.0195,170.13913 c -1.32292,-2.25689 -4.96623,-4.37885 -7.14375,-4.7625 -4.68048,-0.82814 -10.70504,4.49792 -11.90625,11.90625 -0.23813,1.4605 -1.05833,7.08554 2.38125,11.90625 0.87842,1.22767 3.40783,4.7625 7.14375,4.7625 3.65919,0 6.15685,-3.41841 7.14375,-4.7625 4.65931,-6.36587 5.87904,-13.11804 2.38125,-19.05 z"
           class="cls-1"
           inkscape:connector-curvature="0" />
        <path
           style="stroke-width:0.26458332"
           id="path6070"
           d="m 340.257,174.90163 c -0.55298,-0.99219 -1.23296,-2.21191 -2.38125,-2.38125 -2.03465,-0.30162 -4.00579,2.91042 -4.7625,4.7625 -0.47096,1.14829 -1.50019,4.27567 0,7.14375 0.37835,0.72496 1.05833,2.01877 2.38125,2.38125 1.89442,0.52917 3.87085,-1.22502 4.7625,-2.38125 2.286,-2.97921 1.30175,-7.17814 0,-9.525 z"
           class="cls-7"
           inkscape:connector-curvature="0" />
        <path
           style="stroke-width:0.26458332"
           id="path6072"
           d="m 397.407,162.99538 c 0.31485,-0.48419 3.55071,-5.31019 7.14375,-4.7625 1.76477,0.26459 3.16177,1.76477 4.7625,4.7625 2.99244,5.60652 8.2841,19.44159 2.38125,23.8125 -2.77548,2.05317 -6.99294,1.25148 -9.525,0 -7.81315,-3.86556 -9.32392,-16.84337 -4.7625,-23.8125 z"
           class="cls-1"
           inkscape:connector-curvature="0" />
        <path
           style="stroke-width:0.26458332"
           id="path6074"
           d="m 399.78825,170.13913 c 0.17462,-0.39423 0.97367,-2.17487 2.38125,-2.38125 2.05052,-0.30427 4.01637,2.94481 4.7625,4.7625 0.34396,0.83609 1.67217,4.07723 0,7.14375 -0.51065,0.93134 -1.25942,2.30452 -2.38125,2.38125 -2.71198,0.18256 -6.87917,-7.19402 -4.7625,-11.90625 z"
           class="cls-7"
           inkscape:connector-curvature="0" />
        <path
           style="stroke-width:0.26458332"
           id="path6076"
           d="m 405.8525,187.56724 a 10.694458,10.694458 0 0 1 2.78871,0 5.5059791,5.5059791 0 0 0 0.70114,-0.41011 c 5.88434,-4.03489 0.61119,-16.80898 -2.38125,-21.98423 -1.5875,-2.76754 -2.98979,-4.14866 -4.74927,-4.39737 -3.57981,-0.50536 -6.80508,3.95287 -7.11994,4.39737 -4.54024,6.43467 -3.03741,18.415 4.74663,21.98423 0.3466,0.15875 0.7276,0.30956 1.12977,0.44715 a 14.099646,14.099646 0 0 0 1.65629,0.23548 1.1033125,1.1033125 0 0 1 0.86254,-0.74877 3.0268333,3.0268333 0 0 1 2.36538,0.47625 z"
           class="cls-8"
           inkscape:connector-curvature="0" />
        <path
           style="stroke-width:0.26458332"
           id="path6078"
           d="m 343.5881,188.85311 a 25.325916,25.325916 0 0 1 -1.32291,-8.23648 29.604229,29.604229 0 0 1 2.21191,-11.21833 c -0.40481,-0.26458 -0.79375,-0.54504 -1.18533,-0.83873 -0.26458,-0.1905 -0.51329,-0.40217 -0.762,-0.62706 -2.30981,4.53496 -3.54277,9.42181 -3.48985,14.02291 0.0159,1.45786 0.0635,5.00592 1.5531,8.84767 a 14.086416,14.086416 0 0 1 2.99508,-1.94998 z"
           class="cls-9"
           inkscape:connector-curvature="0" />
        <path
           style="stroke-width:0.26458332"
           id="path6080"
           d="m 405.10637,182.01099 c 0,-14.2875 -13.08364,-25.38148 -14.2875,-26.19375 a 35.213395,35.213395 0 0 0 -10.58333,-4.71752 c -0.18521,-0.0423 -0.37306,-0.09 -0.56621,-0.14023 -2.34685,-0.62442 -5.25991,-1.85209 -7.14375,-4.51909 -1.81239,-2.52941 -2.23043,-5.75733 -2.43416,-5.70441 -0.20373,0.0529 0.4445,2.4421 0.20373,5.715 -0.10319,1.36789 -0.24078,3.06387 -0.98161,3.26231 -0.74083,0.19844 -1.85208,-1.34938 -1.99231,-1.56104 -0.92604,-1.34673 -1.05833,-2.75432 -1.18269,-2.74109 -0.12435,0.0132 0.49477,2.26484 -0.60589,3.95552 -0.48419,0.73819 -1.19592,1.2065 -1.905,1.67482 -0.31486,0.20373 -0.61913,0.37835 -0.90753,0.52916 -13.78743,4.51115 -22.33877,18.47057 -22.19854,30.47471 0.0238,2.14313 0.0979,8.81063 4.7625,14.2875 a 17.727083,17.727083 0 0 0 1.75154,1.78065 c 3.80207,3.51631 8.43757,4.63021 12.8323,5.63033 5.11704,1.16152 19.05,2.38125 33.3375,-4.7625 3.46075,-1.73037 11.90625,-7.46919 11.90625,-16.66875 0,-0.0661 0,-0.12964 0,-0.19579 0,-0.0661 -0.005,-0.0635 -0.005,-0.10583 z"
           class="cls-1"
           inkscape:connector-curvature="0" />
        <path
           style="fill:#f7c45b;fill-opacity:1;stroke-width:0.26458332"
           id="path6082"
           d="m 373.5945,179.66413 c 1.52665,-1.35202 3.60362,-4.63285 6.84742,-6.20183 a 16.949208,16.949208 0 0 1 10.48014,-1.35731 c 0.26459,0.0476 4.00844,1.32291 6.48494,5.17789 3.79942,5.90021 1.64835,14.84842 -4.7625,19.05 -1.39435,0.91281 -2.48444,1.48961 -4.7625,2.38125 -2.27806,0.89165 -12.49098,4.68313 -26.19375,2.38125 -4.83923,-0.81491 -6.31825,-1.75154 -7.14375,-2.38125 -3.70417,-2.83633 -5.10381,-7.80785 -4.7625,-11.90625 0.10319,-1.26471 0.58737,-6.12775 4.7625,-9.525 5.0456,-4.11162 11.18129,-2.57704 11.90625,-2.38125 a 13.49375,13.49375 0 0 1 4.7625,2.38125 z"
           class="cls-10"
           inkscape:connector-curvature="0" />
        <path
           style="stroke-width:0.26458332"
           id="path6084"
           d="m 370.90104,190.91686 c -0.12171,-0.508 0.64294,-1.12977 1.14829,-1.40758 1.42082,-0.77788 3.48457,-0.30427 3.64332,0.40216 0.12435,0.54769 -0.88371,1.29117 -1.72244,1.5875 -1.27529,0.42863 -2.91042,0.0741 -3.06917,-0.58208 z"
           class="cls-11"
           inkscape:connector-curvature="0" />
        <circle
           style="stroke-width:0.26458332"
           id="circle6086"
           r="0.26458332"
           cy="192.63666"
           cx="379.67462" />
        <path
           style="stroke-width:0.26458332"
           id="path6088"
           d="m 360.8945,186.6994 c -0.6694,0.16404 -0.99748,1.16417 -1.03452,1.83621 -0.0582,1.15623 0.69321,2.57175 1.62719,2.56911 0.79375,0 1.54781,-1.03982 1.5875,-1.99761 0.0476,-1.34144 -1.29646,-2.62996 -2.18017,-2.40771 z"
           class="cls-12"
           inkscape:connector-curvature="0" />
        <path
           style="stroke:#f7c45b;stroke-width:0.26188925;stroke-miterlimit:4;stroke-dasharray:none;stroke-opacity:1"
           id="path6090"
           d="m 340.18027,178.4788 c 20.44965,7.79992 44.52673,3.83117 61.47594,-9.62554"
           class="cls-13"
           inkscape:connector-curvature="0" />
        <path
           style="fill:#1d1d1d;fill-opacity:1;stroke-width:0.26458332"
           id="path6092"
           d="m 390.59398,175.82767 c 1.27794,5.55625 0.0476,10.19705 -2.62202,11.44323 -1.34938,0.62971 -2.78342,0.26459 -3.09827,0.17463 -2.62467,-0.74084 -4.55613,-3.70417 -4.7625,-7.51946 l 2.41564,-0.75935 5.62769,-2.19605 z"
           class="cls-14"
           inkscape:connector-curvature="0" />
        <path
           style="stroke-width:0.26458332"
           id="path6094"
           d="m 390.24473,156.10828 c -3.556,-2.40771 -6.29444,-3.29936 -6.29444,-3.29936 -4.23333,-1.72773 -6.05896,-1.55575 -8.54339,-3.32052 -1.26471,-0.89958 -2.99244,-2.51089 -4.3868,-5.54302 -0.0556,3.54806 0.96838,5.57742 2.08227,6.80773 0.90753,1.00277 9.46944,4.97681 12.85875,7.00617 0.65617,0.39423 3.89467,2.78871 4.13809,3.00302 2.51883,2.19869 11.19187,10.45104 9.89541,21.26721 -1.12712,9.42181 -9.13077,15.27968 -11.90625,16.66875 a 54.400978,54.400978 0 0 1 -25.019,5.64091 54.361291,54.361291 0 0 0 29.55661,-5.36839 c 3.4581,-1.73038 11.90625,-7.47184 11.90625,-16.66875 0,-14.2875 -13.08629,-25.38148 -14.2875,-26.19375 z"
           class="cls-15"
           inkscape:connector-curvature="0" />
        <path
           style="fill:#ffffff;stroke:#000000;stroke-width:0.52916664px;stroke-miterlimit:10"
           inkscape:connector-curvature="0"
           id="path6096"
           d="m 379.15075,195.39367 a 18.123958,18.123958 0 0 1 -2.64583,0.22489 19.460104,19.460104 0 0 1 -3.22792,-0.24077 20.211521,20.211521 0 0 1 -2.71198,-0.52917 18.459979,18.459979 0 0 1 -3.2094,-1.21179 c 0.0926,0.42334 0.20109,0.86519 0.32544,1.32292 q 0.21431,0.76994 0.4445,1.45785 a 14.2875,14.2875 0 0 0 5.6859,1.94998 15.610416,15.610416 0 0 0 6.45054,-0.52916 7.6305832,7.6305832 0 0 1 -0.52917,-0.86519 6.7601041,6.7601041 0 0 1 -0.58208,-1.57956 z"
           class="cls-16" />
        <path
           style="stroke-width:0.26458332"
           id="path6098"
           d="m 372.37742,195.44653 a 9.7895832,9.7895832 0 0 0 -4.69107,1.51077"
           class="cls-17"
           inkscape:connector-curvature="0" />
        <path
           style="stroke-width:0.26458332"
           inkscape:connector-curvature="0"
           id="path6100"
           d="m 372.37742,196.91497 a 10.485437,10.485437 0 0 1 -2.40771,-0.52917 c -0.38894,-0.14023 -0.75671,-0.3175 -1.13506,-0.47625 l -1.14036,-0.48948 v 0.0212 a 4.9503541,4.9503541 0 0 0 1.03981,0.70908 6.3499999,6.3499999 0 0 0 1.18269,0.43656 9.2604166,9.2604166 0 0 0 2.47386,0.36777 z" />
        <path
           style="stroke-width:0.26458332"
           id="path6102"
           d="m 355.33825,183.35507 a 19.420416,19.420416 0 0 0 2.21985,0.6059 c 0.37307,0.0794 0.74613,0.14816 1.12448,0.20108 0.37836,0.0529 0.75142,0.10583 1.12713,0.13758 0.75671,0.0661 1.51077,0 2.26219,0.0688 0.75141,0.0688 1.50812,0.0794 2.29922,0.18786 v 0.0794 a 6.8288957,6.8288957 0 0 1 -2.30716,0.52917 9.3609582,9.3609582 0 0 1 -2.3495,-0.23283 14.851062,14.851062 0 0 1 -2.27277,-0.58738 15.671271,15.671271 0 0 1 -2.14313,-0.91546 z"
           class="cls-22"
           inkscape:connector-curvature="0" />
      </g>
    </g>
  </g>
</svg>
